# Blender 4.0.1
# www.blender.org
mtllib Penguin_Flapper.mtl
o Penguin_Flapper
v -0.014378 -0.031606 0.177242
v -0.021054 -0.034516 0.111350
v -0.021054 -0.019737 0.194509
v 0.019504 -0.034516 0.188719
v 0.111370 -0.035118 0.178265
v 0.018549 -0.020079 0.221107
v 0.019088 -0.040418 0.109897
v 0.019047 -0.041263 -0.000000
v 0.114306 -0.041263 0.102502
v 0.116068 -0.042141 0.000000
v 0.272024 -0.040418 0.089054
v 0.278276 -0.041263 -0.000000
v 0.343170 -0.037467 0.082770
v 0.260514 -0.034516 0.153855
v 0.260081 -0.020079 0.179635
v 0.317719 -0.033061 0.140407
v 0.374925 -0.031606 0.126959
v 0.330590 -0.019908 0.157150
v 0.401099 -0.019737 0.134664
v 0.333562 -0.000000 0.159715
v 0.260654 -0.000000 0.183225
v 0.406470 -0.000000 0.136205
v 0.330590 0.019908 0.157150
v 0.260081 0.020079 0.179635
v 0.401099 0.019737 0.134664
v 0.317719 0.033061 0.140407
v 0.374925 0.031606 0.126959
v 0.260514 0.034516 0.153855
v 0.343170 0.037467 0.082770
v 0.272024 0.040418 0.089054
v 0.414315 0.034516 0.076485
v 0.353337 0.038190 -0.000000
v 0.278276 0.041263 -0.000000
v 0.428399 0.035117 -0.000000
v 0.343170 0.037467 -0.082770
v 0.272024 0.040418 -0.089054
v 0.414315 0.034516 -0.076485
v 0.317719 0.033061 -0.140407
v 0.260514 0.034516 -0.153855
v 0.374925 0.031606 -0.126959
v 0.330590 0.019908 -0.157150
v 0.260081 0.020079 -0.179635
v 0.401099 0.019737 -0.134664
v 0.333562 -0.000000 -0.159715
v 0.406470 -0.000000 -0.136205
v 0.260654 -0.000000 -0.183225
v 0.330590 -0.019908 -0.157150
v 0.260081 -0.020079 -0.179635
v 0.401099 -0.019737 -0.134664
v 0.317719 -0.033061 -0.140407
v 0.260514 -0.034516 -0.153855
v 0.374925 -0.031606 -0.126959
v 0.343170 -0.037467 -0.082770
v 0.272024 -0.040418 -0.089054
v 0.414315 -0.034516 -0.076485
v 0.353337 -0.038190 -0.000000
v 0.428399 -0.035118 0.000000
v 0.414315 -0.034516 0.076485
v 0.493197 -0.020193 -0.000000
v 0.502454 -0.000000 -0.000000
v 0.474818 -0.020079 -0.072957
v 0.474818 -0.020079 0.072957
v 0.483407 -0.000000 0.072692
v 0.474818 0.020079 0.072957
v 0.493197 0.020193 -0.000000
v 0.474818 0.020079 -0.072957
v 0.483407 -0.000000 -0.072692
v 0.114306 -0.041263 -0.102503
v 0.111370 -0.035118 -0.178265
v 0.019088 -0.040418 -0.109897
v -0.021054 -0.034516 -0.111350
v 0.019504 -0.034516 -0.188719
v -0.014378 -0.031606 -0.177242
v 0.018549 -0.020079 -0.221107
v -0.021054 -0.019737 -0.194509
v 0.018264 -0.000000 -0.225772
v 0.109999 -0.020193 -0.209462
v 0.109803 -0.000000 -0.213918
v 0.109999 0.020193 -0.209462
v 0.111370 0.035117 -0.178265
v 0.018549 0.020079 -0.221107
v -0.021054 0.019737 -0.194509
v 0.019504 0.034516 -0.188719
v -0.014378 0.031606 -0.177242
v 0.019088 0.040418 -0.109897
v 0.019047 0.041263 -0.000000
v 0.114306 0.041263 -0.102503
v -0.021054 0.034516 -0.111350
v -0.022434 0.035117 -0.000000
v -0.034592 0.020079 -0.114429
v -0.036532 -0.000000 -0.115239
v -0.036532 0.020193 -0.000000
v -0.038546 -0.000000 -0.000000
v -0.034592 0.020079 0.114429
v -0.036532 -0.000000 0.115239
v -0.021054 0.019737 0.194509
v -0.021054 0.034516 0.111350
v -0.014378 0.031606 0.177242
v 0.019088 0.040418 0.109897
v 0.019504 0.034516 0.188719
v 0.114306 0.041263 0.102502
v 0.111370 0.035117 0.178265
v 0.116068 0.042141 -0.000000
v 0.109999 0.020193 0.209462
v 0.109803 -0.000000 0.213918
v 0.018549 0.020079 0.221107
v 0.018264 -0.000000 0.225772
v -0.022434 -0.000000 0.198091
v 0.109999 -0.020193 0.209462
v -0.034592 -0.020079 0.114429
v -0.036532 -0.020193 -0.000000
v -0.022434 -0.035118 0.000000
v -0.034592 -0.020079 -0.114429
v -0.022434 -0.000000 -0.198091
vn -0.4362 -0.8785 0.1949
vn -0.4687 -0.8818 0.0520
vn -0.0706 -0.9967 0.0405
vn -0.0894 -0.9571 0.2758
vn -0.7198 -0.5037 0.4777
vn -0.9119 -0.4017 0.0839
vn -0.1857 -0.5782 0.7945
vn 0.0031 -0.9989 0.0458
vn 0.0385 -0.9624 0.2690
vn 0.1251 -0.6087 0.7835
vn -0.4638 -0.8859 -0.0000
vn -0.0774 -0.9970 -0.0000
vn -0.0014 -1.0000 -0.0000
vn 0.0246 -0.9997 -0.0000
vn 0.0286 -0.9982 0.0524
vn 0.0783 -0.9511 0.2988
vn 0.0418 -0.9991 -0.0000
vn 0.0455 -0.9974 0.0556
vn 0.1071 -0.9408 0.3216
vn 0.2012 -0.5740 0.7938
vn 0.2519 -0.5396 0.8034
vn 0.1653 -0.9768 0.1362
vn 0.1445 -0.9317 0.3331
vn 0.3937 -0.5882 0.7064
vn 0.3056 -0.0000 0.9522
vn 0.2513 -0.0000 0.9679
vn 0.5006 -0.0000 0.8657
vn 0.2519 0.5396 0.8034
vn 0.2012 0.5740 0.7938
vn 0.3937 0.5882 0.7064
vn 0.1071 0.9408 0.3216
vn 0.0783 0.9511 0.2988
vn 0.1445 0.9317 0.3331
vn 0.1653 0.9768 0.1362
vn 0.0455 0.9974 0.0556
vn 0.0286 0.9982 0.0524
vn 0.0418 0.9991 -0.0000
vn 0.0246 0.9997 -0.0000
vn 0.1470 0.9891 -0.0000
vn 0.0455 0.9974 -0.0556
vn 0.0286 0.9982 -0.0524
vn 0.1653 0.9768 -0.1362
vn 0.1071 0.9408 -0.3216
vn 0.0783 0.9511 -0.2988
vn 0.1445 0.9317 -0.3331
vn 0.2519 0.5396 -0.8034
vn 0.2012 0.5740 -0.7938
vn 0.3937 0.5882 -0.7064
vn 0.3056 -0.0000 -0.9522
vn 0.2513 -0.0000 -0.9679
vn 0.5006 -0.0000 -0.8657
vn 0.3937 -0.5882 -0.7064
vn 0.2519 -0.5396 -0.8034
vn 0.2012 -0.5740 -0.7938
vn 0.1071 -0.9408 -0.3216
vn 0.0783 -0.9511 -0.2988
vn 0.1445 -0.9317 -0.3331
vn 0.0286 -0.9982 -0.0524
vn 0.0455 -0.9974 -0.0556
vn 0.1653 -0.9768 -0.1362
vn 0.1470 -0.9891 -0.0000
vn 0.6078 -0.6843 -0.4030
vn 0.6769 -0.7361 -0.0000
vn 0.6078 -0.6843 0.4030
vn 1.0000 -0.0000 -0.0000
vn 0.8647 -0.0000 0.5023
vn 0.8647 -0.0000 -0.5023
vn 0.6769 0.7361 -0.0000
vn 0.6078 0.6843 0.4030
vn 0.6078 0.6843 -0.4030
vn 0.0031 -0.9989 -0.0458
vn 0.0385 -0.9624 -0.2690
vn -0.0706 -0.9967 -0.0405
vn -0.0894 -0.9571 -0.2758
vn -0.4687 -0.8818 -0.0520
vn -0.4362 -0.8785 -0.1949
vn -0.1857 -0.5782 -0.7945
vn 0.1251 -0.6087 -0.7835
vn -0.7198 -0.5037 -0.4777
vn -0.8262 -0.0000 -0.5634
vn -0.2236 -0.0000 -0.9747
vn 0.1614 -0.0000 -0.9869
vn 0.1251 0.6087 -0.7835
vn -0.1857 0.5782 -0.7945
vn 0.0385 0.9624 -0.2690
vn -0.0894 0.9571 -0.2758
vn -0.7198 0.5037 -0.4777
vn -0.4362 0.8785 -0.1949
vn -0.0706 0.9967 -0.0405
vn 0.0031 0.9989 -0.0458
vn -0.4687 0.8818 -0.0520
vn -0.0774 0.9970 -0.0000
vn -0.0014 1.0000 -0.0000
vn -0.4638 0.8859 -0.0000
vn -0.9119 0.4017 -0.0839
vn -0.9107 0.4131 -0.0000
vn -0.9956 -0.0000 -0.0941
vn -1.0000 -0.0000 -0.0000
vn -0.9956 -0.0000 0.0941
vn -0.9119 0.4017 0.0839
vn -0.4687 0.8818 0.0520
vn -0.8262 -0.0000 0.5634
vn -0.7198 0.5037 0.4777
vn -0.4362 0.8785 0.1949
vn -0.0706 0.9967 0.0405
vn -0.0894 0.9571 0.2758
vn 0.0385 0.9624 0.2690
vn 0.0031 0.9989 0.0458
vn 0.1251 0.6087 0.7835
vn -0.1857 0.5782 0.7945
vn -0.2236 -0.0000 0.9747
vn 0.1614 -0.0000 0.9869
vn -0.9107 -0.4131 -0.0000
vn -0.9119 -0.4017 -0.0839
vt 0.198066 0.084907
vt 0.200016 0.104714
vt 0.186177 0.104933
vt 0.186436 0.081265
vt 0.200335 0.079649
vt 0.204544 0.103723
vt 0.186782 0.071412
vt 0.153160 0.106486
vt 0.154559 0.083755
vt 0.155036 0.074255
vt 0.199828 0.138066
vt 0.185536 0.137844
vt 0.151940 0.137170
vt 0.095742 0.136018
vt 0.098436 0.109392
vt 0.102742 0.090006
vt 0.069703 0.135455
vt 0.073717 0.110739
vt 0.082827 0.093613
vt 0.102867 0.082127
vt 0.078305 0.088360
vt 0.048998 0.112086
vt 0.062912 0.097219
vt 0.053744 0.094593
vt 0.077043 0.087344
vt 0.102439 0.080819
vt 0.051646 0.093869
vt 0.126778 0.201570
vt 0.151891 0.209122
vt 0.150597 0.209642
vt 0.126307 0.202412
vt 0.177003 0.216674
vt 0.174886 0.216872
vt 0.145873 0.214414
vt 0.126120 0.209969
vt 0.165625 0.218860
vt 0.178927 0.234215
vt 0.154284 0.231799
vt 0.129641 0.229383
vt 0.157296 0.256641
vt 0.131257 0.256078
vt 0.183335 0.257205
vt 0.153282 0.281357
vt 0.128563 0.282704
vt 0.178001 0.280010
vt 0.144173 0.298483
vt 0.124258 0.302090
vt 0.164088 0.294877
vt 0.148694 0.303736
vt 0.124132 0.309969
vt 0.173256 0.297503
vt 0.149957 0.304752
vt 0.124560 0.311277
vt 0.175354 0.298227
vt 0.052113 0.175224
vt 0.076403 0.182454
vt 0.075109 0.182974
vt 0.049997 0.175422
vt 0.100692 0.189684
vt 0.100221 0.190526
vt 0.081127 0.177682
vt 0.100879 0.182127
vt 0.061375 0.173236
vt 0.097358 0.162713
vt 0.072715 0.160297
vt 0.048072 0.157881
vt 0.043664 0.134891
vt 0.026956 0.156235
vt 0.021033 0.134265
vt 0.027839 0.112552
vt 0.017574 0.133970
vt 0.024611 0.112342
vt 0.023731 0.155866
vt 0.203268 0.236230
vt 0.209426 0.258126
vt 0.205967 0.257831
vt 0.200044 0.235861
vt 0.202388 0.279754
vt 0.199160 0.279545
vt 0.151919 0.167860
vt 0.152401 0.190492
vt 0.184846 0.170734
vt 0.184151 0.194261
vt 0.198668 0.171385
vt 0.195920 0.191031
vt 0.184105 0.203800
vt 0.152500 0.199671
vt 0.197980 0.196112
vt 0.198190 0.196969
vt 0.183925 0.204970
vt 0.152288 0.200777
vt 0.072121 0.319403
vt 0.071963 0.317841
vt 0.040341 0.322308
vt 0.040217 0.320685
vt 0.072440 0.308341
vt 0.040563 0.310831
vt 0.026411 0.313734
vt 0.026664 0.312447
vt 0.028933 0.307189
vt 0.040823 0.287163
vt 0.073840 0.285610
vt 0.026983 0.287383
vt 0.041463 0.254253
vt 0.075060 0.254926
vt 0.027172 0.254030
vt 0.022455 0.288374
vt 0.022475 0.254101
vt 0.022030 0.288831
vt 0.022030 0.254317
vt 0.023425 0.219831
vt 0.023841 0.219859
vt 0.028331 0.220712
vt 0.028810 0.195127
vt 0.029019 0.195984
vt 0.031079 0.201065
vt 0.042153 0.221362
vt 0.042848 0.197835
vt 0.074599 0.201604
vt 0.075081 0.224237
vt 0.074499 0.192425
vt 0.042894 0.188296
vt 0.043074 0.187126
vt 0.074711 0.191319
vt 0.154878 0.072693
vt 0.186658 0.069789
vt 0.200588 0.078362
vt 0.204970 0.103265
vt 0.204525 0.137995
vt 0.204970 0.137779
vt 0.203159 0.172237
vt 0.203575 0.172265
s 1
usemtl Material
f 1/1/1 2/2/2 7/3/3 4/4/4
f 2/2/2 1/1/1 3/5/5 110/6/6
f 1/1/1 4/4/4 6/7/7 3/5/5
f 4/4/4 7/3/3 9/8/8 5/9/9
f 4/4/4 5/9/9 109/10/10 6/7/7
f 2/2/2 112/11/11 8/12/12 7/3/3
f 7/3/3 8/12/12 10/13/13 9/8/8
f 9/8/8 10/13/13 12/14/14 11/15/15
f 5/9/9 9/8/8 11/15/15 14/16/16
f 11/15/15 12/14/14 56/17/17 13/18/18
f 14/16/16 11/15/15 13/18/18 16/19/19
f 5/9/9 14/16/16 15/20/20 109/10/10
f 14/16/16 16/19/19 18/21/21 15/20/20
f 16/19/19 13/18/18 58/22/22 17/23/23
f 16/19/19 17/23/23 19/24/24 18/21/21
f 15/20/20 18/21/21 20/25/25 21/26/26
f 18/21/21 19/24/24 22/27/27 20/25/25
f 21/28/26 20/29/25 23/30/28 24/31/29
f 20/29/25 22/32/27 25/33/30 23/30/28
f 24/31/29 23/30/28 26/34/31 28/35/32
f 23/30/28 25/33/30 27/36/33 26/34/31
f 26/34/31 27/36/33 31/37/34 29/38/35
f 28/35/32 26/34/31 29/38/35 30/39/36
f 30/39/36 29/38/35 32/40/37 33/41/38
f 29/38/35 31/37/34 34/42/39 32/40/37
f 33/41/38 32/40/37 35/43/40 36/44/41
f 32/40/37 34/42/39 37/45/42 35/43/40
f 36/44/41 35/43/40 38/46/43 39/47/44
f 35/43/40 37/45/42 40/48/45 38/46/43
f 41/49/46 42/50/47 39/47/44 38/46/43
f 43/51/48 41/49/46 38/46/43 40/48/45
f 44/52/49 46/53/50 42/50/47 41/49/46
f 45/54/51 44/52/49 41/49/46 43/51/48
f 49/55/52 47/56/53 44/57/49 45/58/51
f 47/56/53 48/59/54 46/60/50 44/57/49
f 50/61/55 51/62/56 48/59/54 47/56/53
f 52/63/57 50/61/55 47/56/53 49/55/52
f 54/64/58 51/62/56 50/61/55 53/65/59
f 53/65/59 50/61/55 52/63/57 55/66/60
f 12/14/14 54/64/58 53/65/59 56/17/17
f 56/17/17 53/65/59 55/66/60 57/67/61
f 13/18/18 56/17/17 57/67/61 58/22/22
f 57/67/61 55/66/60 61/68/62 59/69/63
f 58/22/22 57/67/61 59/69/63 62/70/64
f 62/70/64 59/69/63 60/71/65 63/72/66
f 59/69/63 61/68/62 67/73/67 60/71/65
f 17/23/23 58/22/22 62/70/64 19/24/24
f 19/24/24 62/70/64 63/72/66 22/27/27
f 63/74/66 60/75/65 65/76/68 64/77/69
f 22/32/27 63/74/66 64/77/69 25/33/30
f 64/77/69 65/76/68 34/42/39 31/37/34
f 25/33/30 64/77/69 31/37/34 27/36/33
f 60/75/65 67/78/67 66/79/70 65/76/68
f 65/76/68 66/79/70 37/45/42 34/42/39
f 67/78/67 45/54/51 43/51/48 66/79/70
f 66/79/70 43/51/48 40/48/45 37/45/42
f 61/68/62 49/55/52 45/58/51 67/73/67
f 55/66/60 52/63/57 49/55/52 61/68/62
f 68/80/71 69/81/72 51/62/56 54/64/58
f 10/13/13 68/80/71 54/64/58 12/14/14
f 70/82/73 72/83/74 69/81/72 68/80/71
f 8/12/12 70/82/73 68/80/71 10/13/13
f 71/84/75 73/85/76 72/83/74 70/82/73
f 112/11/11 71/84/75 70/82/73 8/12/12
f 69/81/72 72/83/74 74/86/77 77/87/78
f 72/83/74 73/85/76 75/88/79 74/86/77
f 74/86/77 75/88/79 114/89/80 76/90/81
f 77/87/78 74/86/77 76/90/81 78/91/82
f 51/62/56 69/81/72 77/87/78 48/59/54
f 48/59/54 77/87/78 78/91/82 46/60/50
f 46/53/50 78/92/82 79/93/83 42/50/47
f 78/92/82 76/94/81 81/95/84 79/93/83
f 42/50/47 79/93/83 80/96/85 39/47/44
f 79/93/83 81/95/84 83/97/86 80/96/85
f 76/94/81 114/98/80 82/99/87 81/95/84
f 81/95/84 82/99/87 84/100/88 83/97/86
f 85/101/89 87/102/90 80/96/85 83/97/86
f 88/103/91 85/101/89 83/97/86 84/100/88
f 86/104/92 103/105/93 87/102/90 85/101/89
f 89/106/94 86/104/92 85/101/89 88/103/91
f 82/99/87 90/107/95 88/103/91 84/100/88
f 90/107/95 92/108/96 89/106/94 88/103/91
f 91/109/97 93/110/98 92/108/96 90/107/95
f 114/98/80 91/109/97 90/107/95 82/99/87
f 93/110/98 95/111/99 94/112/100 92/108/96
f 92/108/96 94/112/100 97/113/101 89/106/94
f 95/111/99 108/114/102 96/115/103 94/112/100
f 94/112/100 96/115/103 98/116/104 97/113/101
f 97/113/101 99/117/105 86/104/92 89/106/94
f 98/116/104 100/118/106 99/117/105 97/113/101
f 100/118/106 102/119/107 101/120/108 99/117/105
f 99/117/105 101/120/108 103/105/93 86/104/92
f 102/119/107 28/35/32 30/39/36 101/120/108
f 101/120/108 30/39/36 33/41/38 103/105/93
f 103/105/93 33/41/38 36/44/41 87/102/90
f 104/121/109 24/31/29 28/35/32 102/119/107
f 106/122/110 104/121/109 102/119/107 100/118/106
f 107/123/111 105/124/112 104/121/109 106/122/110
f 105/124/112 21/28/26 24/31/29 104/121/109
f 108/114/102 107/123/111 106/122/110 96/115/103
f 96/115/103 106/122/110 100/118/106 98/116/104
f 6/7/7 109/10/10 105/125/112 107/126/111
f 3/5/5 6/7/7 107/126/111 108/127/102
f 110/6/6 3/5/5 108/127/102 95/128/99
f 109/10/10 15/20/20 21/26/26 105/125/112
f 111/129/113 110/6/6 95/128/99 93/130/98
f 112/11/11 2/2/2 110/6/6 111/129/113
f 71/84/75 112/11/11 111/129/113 113/131/114
f 113/131/114 111/129/113 93/130/98 91/132/97
f 73/85/76 71/84/75 113/131/114 75/88/79
f 75/88/79 113/131/114 91/132/97 114/89/80
f 87/102/90 36/44/41 39/47/44 80/96/85
